<?xml version="1.0"?>
<svg xmlns="http://www.w3.org/2000/svg" xmlns:xlink="http://www.w3.org/1999/xlink" xmlns:svgjs="http://svgjs.com/svgjs" version="1.1" width="512" height="512" x="0" y="0" viewBox="0 0 409 409.6" style="enable-background:new 0 0 512 512" xml:space="preserve" class=""><g transform="matrix(1,0,0,1,30,0)"><path xmlns="http://www.w3.org/2000/svg" d="m237.75 113.699219c9.699219 6.199219 19 12.699219 27.898438 19.402343-3.277344-19.707031-8.398438-39.058593-15.296876-57.800781-17.667968 3.855469-34.96875 9.242188-51.703124 16.097657 13.101562 6.601562 26.203124 14.101562 39.101562 22.300781zm0 0" fill="#00cc9c" data-original="#000000" style="" class=""/><path xmlns="http://www.w3.org/2000/svg" d="m244.148438 60.199219c-.40625-.8125-.773438-1.648438-1.097657-2.5-17.300781-36.699219-40.402343-57.699219-63.601562-57.699219s-46.300781 21-63.597657 57.699219c-.429687.804687-.796874 1.640625-1.101562 2.5 22.234375 5.160156 43.902344 12.496093 64.699219 21.902343 20.796875-9.40625 42.46875-16.742187 64.699219-21.902343zm0 0" fill="#00cc9c" data-original="#000000" style="" class=""/><path xmlns="http://www.w3.org/2000/svg" d="m269.050781 72c-.90625.085938-1.808593.21875-2.699219.398438 8.636719 24.339843 14.539063 49.558593 17.597657 75.203124 16.203125 13.457032 31.222656 28.28125 44.902343 44.296876 3.097657-4.199219 6-8.5 8.699219-12.796876 21.597657-34.300781 26.800781-65.203124 14.398438-84.601562-12.5-19.5-42.699219-27.699219-82.898438-22.5zm0 0" fill="#00cc9c" data-original="#000000" style="" class=""/><path xmlns="http://www.w3.org/2000/svg" d="m160.25 91.398438c-16.730469-6.867188-34.027344-12.257813-51.699219-16.097657-6.902343 18.742188-12.023437 38.09375-15.300781 57.800781 8.898438-6.703124 18.300781-13.203124 27.898438-19.402343 12.902343-8.199219 26-15.699219 39.101562-22.300781zm0 0" fill="#00cc9c" data-original="#000000" style="" class=""/><path xmlns="http://www.w3.org/2000/svg" d="m318.851562 204.800781c-10.042968-12.066406-20.902343-23.425781-32.5-34 .796876 11.097657 1.199219 22.5 1.199219 34s-.402343 22.800781-1.199219 34c11.597657-10.574219 22.457032-21.9375 32.5-34zm0 0" fill="#00cc9c" data-original="#000000" style="" class=""/><path xmlns="http://www.w3.org/2000/svg" d="m201.050781 204.800781c0 11.929688-9.671875 21.597657-21.601562 21.597657-11.929688 0-21.597657-9.667969-21.597657-21.597657 0-11.929687 9.667969-21.601562 21.597657-21.601562 11.929687 0 21.601562 9.671875 21.601562 21.601562zm0 0" fill="#00cc9c" data-original="#000000" style="" class=""/><path xmlns="http://www.w3.org/2000/svg" d="m179.449219 99.699219c-31.917969 15.132812-61.925781 33.996093-89.398438 56.199219-3.601562 32.503906-3.601562 65.300781 0 97.800781 12.753907 10.261719 26.039063 19.839843 39.800781 28.699219 15.917969 10.234374 32.488282 19.417968 49.597657 27.5 17.125-8.058594 33.695312-17.246094 49.601562-27.5 13.804688-8.792969 27.09375-18.375 39.800781-28.699219 1.820313-16.234375 2.722657-32.5625 2.699219-48.898438.023438-16.339843-.878906-32.664062-2.699219-48.902343-12.753906-10.257813-26.039062-19.835938-39.800781-28.699219-15.90625-10.253907-32.476562-19.4375-49.601562-27.5zm0 142.699219c-20.765625 0-37.597657-16.832032-37.597657-37.597657s16.832032-37.601562 37.597657-37.601562 37.601562 16.835937 37.601562 37.601562c-.011719 20.761719-16.839843 37.589844-37.601562 37.597657zm0 0" fill="#00cc9c" data-original="#000000" style="" class=""/><path xmlns="http://www.w3.org/2000/svg" d="m198.648438 318.199219c16.730468 6.871093 34.03125 12.257812 51.703124 16.101562 6.898438-18.746093 12.019532-38.097656 15.296876-57.800781-8.898438 6.699219-18.296876 13.199219-27.898438 19.398438-12.898438 8.203124-26 15.703124-39.101562 22.300781zm0 0" fill="#00cc9c" data-original="#000000" style="" class=""/><path xmlns="http://www.w3.org/2000/svg" d="m114.75 349.398438c.410156.816406.777344 1.648437 1.101562 2.5 17.296876 36.703124 40.398438 57.703124 63.597657 57.703124s46.300781-21 63.601562-57.703124c.425781-.804688.792969-1.640626 1.097657-2.5-22.230469-5.15625-43.902344-12.492188-64.699219-21.898438-20.796875 9.40625-42.464844 16.742188-64.699219 21.898438zm0 0" fill="#00cc9c" data-original="#000000" style="" class=""/><path xmlns="http://www.w3.org/2000/svg" d="m328.851562 217.699219c-13.703124 15.996093-28.722656 30.8125-44.902343 44.300781-3.5 27.101562-9.398438 52.601562-17.597657 75.199219.898438.101562 1.796876.300781 2.699219.402343 40.199219 5.199219 70.398438-2.902343 82.898438-22.402343s7.199219-50.300781-14.398438-84.597657c-2.699219-4.402343-5.601562-8.601562-8.699219-12.902343zm0 0" fill="#00cc9c" data-original="#000000" style="" class=""/><path xmlns="http://www.w3.org/2000/svg" d="m30.050781 191.898438c13.703125-15.992188 28.722657-30.8125 44.898438-44.296876 3.5-27.101562 9.402343-52.601562 17.601562-75.203124-.902343-.097657-1.800781-.296876-2.699219-.398438-7.53125-.972656-15.109374-1.472656-22.703124-1.5-28.796876 0-50.199219 8.398438-60.199219 24-12.5 19.5-7.199219 50.300781 14.402343 84.601562 2.699219 4.296876 5.597657 8.5 8.699219 12.796876zm0 0" fill="#00cc9c" data-original="#000000" style="" class=""/><path xmlns="http://www.w3.org/2000/svg" d="m30.050781 217.699219c-3.101562 4.199219-6 8.5-8.699219 12.800781-21.601562 34.300781-26.800781 65.199219-14.402343 84.601562 12.5 19.5 42.699219 27.699219 82.902343 22.398438.90625-.085938 1.804688-.21875 2.699219-.398438-8.636719-24.339843-14.539062-49.558593-17.601562-75.203124-16.269531-13.347657-31.296875-28.140626-44.898438-44.199219zm0 0" fill="#00cc9c" data-original="#000000" style="" class=""/><path xmlns="http://www.w3.org/2000/svg" d="m121.148438 295.898438c-9.699219-6.199219-19-12.699219-27.898438-19.398438 3.277344 19.703125 8.398438 39.054688 15.300781 57.800781 17.667969-3.855469 34.964844-9.246093 51.699219-16.101562-13.101562-6.597657-26.199219-14.097657-39.101562-22.300781zm0 0" fill="#00cc9c" data-original="#000000" style="" class=""/><path xmlns="http://www.w3.org/2000/svg" d="m40.050781 204.800781c10.039063 12.0625 20.898438 23.425781 32.5 34-.800781-11.101562-1.199219-22.5-1.199219-34s.398438-22.800781 1.199219-34c-11.601562 10.574219-22.460937 21.933594-32.5 34zm0 0" fill="#00cc9c" data-original="#000000" style="" class=""/></g></svg>
